<svg width="1060" height="750" viewBox="0 0 1060 750" fill="none" xmlns="http://www.w3.org/2000/svg">
<path fill-rule="evenodd" clip-rule="evenodd" d="M742.466 534.814H317.534C234.31 534.814 166.951 467.285 166.951 384.134V365.866C166.951 282.589 234.436 215.186 317.534 215.186H742.466C825.689 215.186 893.049 282.715 893.049 365.866V384.134C893.049 467.285 825.689 534.814 742.466 534.814Z" fill="#F2F2F2"/>
<path d="M722.195 374.937C723.454 479.38 635.32 571.225 523.012 567.319C422.036 563.791 337.05 480.262 337.679 373.425C338.435 268.478 423.421 182.303 530.189 182.429C640.356 182.681 723.454 273.392 722.195 374.937ZM593.897 356.039C593.897 344.826 594.023 333.991 593.897 323.03C593.897 319.377 593.645 315.597 592.89 312.07C586.091 277.045 555.37 255.25 519.739 260.289C492.291 264.069 468.621 289.014 466.858 316.731C466.103 328.952 466.481 341.173 466.355 353.393C466.355 355.157 466.229 356.291 464.214 357.047C454.016 360.449 448.476 368.386 448.476 379.095C448.476 402.654 448.476 426.214 448.476 449.773C448.476 464.766 457.793 473.963 472.65 473.963C510.925 473.963 549.075 473.963 587.35 473.963C602.459 473.963 611.776 464.64 611.776 449.521C611.776 426.088 611.776 402.654 611.776 379.221C611.776 378.087 611.776 376.827 611.65 375.693C609.887 365.362 603.97 358.937 593.897 356.039Z" fill="#BFBFBF"/>
<path d="M499.72 355.535C499.72 349.236 499.594 343.062 499.72 337.015C499.846 330.338 499.216 323.534 500.475 316.983C503.371 301.487 517.221 291.534 532.833 292.92C547.816 294.18 559.903 306.4 560.532 321.771C561.036 332.606 560.658 343.566 560.658 354.527C560.658 354.779 560.532 355.157 560.406 355.661C540.261 355.535 520.242 355.535 499.72 355.535Z" fill="#BFBFBF"/>
<path d="M540.009 449.143C533.211 449.143 526.789 449.143 519.99 449.143C519.99 442.844 519.865 436.797 519.99 430.623C520.116 428.104 519.361 426.592 517.221 424.954C509.288 418.78 507.652 407.442 513.066 399.001C518.857 390.181 529.685 387.032 538.876 391.819C548.067 396.481 552.474 407.19 548.571 416.513C547.186 419.788 544.416 422.686 541.898 425.458C540.639 426.844 539.758 427.852 539.758 429.741C540.135 436.167 540.009 442.466 540.009 449.143Z" fill="#BFBFBF"/>
<path fill-rule="evenodd" clip-rule="evenodd" d="M215.676 582.437C245.894 597.178 271.956 604.485 293.864 604.485C315.771 604.485 336.168 593.146 354.928 570.595C325.34 555.476 301.04 548.043 281.903 548.043C262.765 548.043 240.732 559.382 215.676 582.437Z" fill="#3B4B9F"/>
<path fill-rule="evenodd" clip-rule="evenodd" d="M254.455 395.851L301.796 550.815L324.837 682.723H342.715L318.541 395.851H254.455Z" fill="#987659"/>
<path fill-rule="evenodd" clip-rule="evenodd" d="M237.458 395.851C240.732 480.892 236.829 524.861 236.199 532.547C235.444 540.232 225.623 590.375 202.33 685.243L221.468 678.691C258.358 591.76 270.949 546.531 275.23 535.066C279.511 523.602 290.716 477.238 308.973 395.851H237.458Z" fill="#B18A67"/>
<path fill-rule="evenodd" clip-rule="evenodd" d="M202.456 678.565C201.071 682.345 200.316 685.117 200.316 687.006C200.316 689.274 200.694 692.55 201.449 696.959C204.093 696.959 227.763 696.959 272.46 696.959C274.348 690.912 273.215 687.51 269.312 687.132C265.409 686.755 262.01 686.251 259.366 685.873L226.378 671.132C225.749 670.88 224.993 671.132 224.742 671.762L222.601 676.928C218.95 678.691 215.928 679.447 213.662 679.447C211.773 679.447 209.255 678.691 205.856 677.18C204.597 676.55 203.086 677.18 202.456 678.439V678.565Z" fill="#E3E3E3"/>
<path fill-rule="evenodd" clip-rule="evenodd" d="M320.808 678.565C319.423 682.345 318.667 685.117 318.667 687.006C318.667 689.274 319.045 692.55 319.8 696.959C322.444 696.959 346.115 696.959 390.811 696.959C392.7 690.912 391.567 687.51 387.664 687.132C383.635 686.629 380.361 686.251 377.717 685.873L344.73 671.132C344.1 670.88 343.345 671.132 343.093 671.762L340.953 676.928C337.301 678.691 334.28 679.447 332.013 679.447C330.125 679.447 327.607 678.691 324.207 677.18C322.948 676.55 321.437 677.18 320.808 678.439V678.565Z" fill="#E3E3E3"/>
<path fill-rule="evenodd" clip-rule="evenodd" d="M266.291 199.059C260.499 192.256 256.596 183.941 257.225 174.492C259.114 147.531 296.634 153.452 303.936 167.059C311.239 180.665 310.357 215.186 300.915 217.579C297.137 218.587 289.205 216.194 281.021 211.28L286.184 247.564H255.966L266.291 199.059Z" fill="#B18A67"/>
<path fill-rule="evenodd" clip-rule="evenodd" d="M291.975 152.318C287.82 151.058 281.903 150.68 279.385 150.932C280.77 147.531 281.399 143.625 280.896 139.972C280.392 136.318 278.881 133.294 277.37 130.019C276.741 128.507 275.859 126.995 274.726 125.861C273.593 124.727 272.082 123.971 270.445 123.593C268.809 123.215 267.172 123.215 265.535 123.593C264.78 123.719 264.15 124.097 263.521 124.223C262.765 124.349 262.513 123.971 261.884 123.467C260.625 122.333 258.736 121.829 257.225 121.703C255.463 121.452 253.574 121.703 251.937 122.333C250.301 122.963 248.664 123.845 247.531 125.231C247.027 125.861 246.523 126.491 246.146 127.247C246.02 127.499 246.02 127.751 245.642 127.877C245.39 128.003 245.012 128.003 244.761 128.129C241.865 129.137 239.473 131.278 238.088 134.176C237.332 135.814 236.955 138.712 237.08 141.987C237.206 145.263 240.102 153.704 242.872 156.854C245.39 159.626 248.916 161.389 252.441 162.271C250.175 164.917 248.538 168.193 247.405 171.594C246.146 175.248 245.39 179.028 245.138 182.933C244.887 186.587 244.887 190.492 245.768 194.146C246.523 197.548 248.286 200.319 251.182 201.957C252.441 202.713 253.952 203.343 255.337 203.973C256.722 204.477 258.107 204.981 259.618 205.359C262.387 205.989 265.661 205.863 267.801 203.595C268.557 202.839 269.438 201.831 269.942 200.823C270.194 200.445 270.32 200.193 270.068 199.941C269.816 199.563 269.312 199.185 268.935 198.933C266.794 197.044 265.409 194.65 265.157 191.752C264.78 188.855 265.661 184.949 268.431 183.689C271.956 182.051 275.859 183.941 279.007 185.579C280.392 180.917 283.036 176.634 287.443 174.492C292.227 172.098 297.641 171.846 302.551 169.705C303.81 169.201 305.069 168.571 306.077 167.437C306.454 166.933 306.958 166.429 307.084 165.799C307.336 165.043 306.832 164.287 306.329 163.783C304.062 160.13 296.13 153.578 291.975 152.318Z" fill="#191946"/>
<path fill-rule="evenodd" clip-rule="evenodd" d="M240.354 367.756C268.683 353.645 295.627 353.645 320.934 367.756C329.747 437.678 351.151 465.396 354.928 572.61C312.12 609.525 259.24 546.279 215.173 582.311C202.582 531.791 220.209 410.339 240.354 367.756Z" fill="#455CA8"/>
<path fill-rule="evenodd" clip-rule="evenodd" d="M349.388 342.432L389.552 371.913C400.506 374.811 409.571 378.465 416.874 382.874C418.636 384.386 420.651 387.662 413.474 387.032C406.298 386.528 398.743 386.276 397.736 388.67C396.729 391.063 401.136 394.087 399.121 397.363C397.736 399.504 391.441 394.087 380.235 380.858L340.449 364.354L349.388 342.432ZM195.154 343.566L221.468 343.692C205.226 396.103 196.413 423.946 195.154 427.096C192.258 434.277 198.427 445.364 201.071 451.285C192.51 455.191 193.391 440.828 182.563 445.994C172.617 450.655 165.188 458.97 153.731 451.915C152.346 451.033 150.835 447.757 154.486 445.238C163.803 438.938 177.149 427.726 178.912 424.072C181.304 419.032 186.844 392.197 195.154 343.566Z" fill="#B18A67"/>
<path fill-rule="evenodd" clip-rule="evenodd" d="M269.942 233.076L280.77 231.186C321.185 266.084 337.805 333.235 387.286 368.764L375.325 383.504C289.457 372.795 268.179 291.03 269.942 233.076Z" fill="#6B360B"/>
<path fill-rule="evenodd" clip-rule="evenodd" d="M222.475 369.898C266.165 369.898 298.271 369.898 318.793 369.898C323.2 369.898 322.319 363.598 321.689 360.323C314.386 323.282 285.68 283.345 285.68 230.682L257.855 226.272C234.94 263.313 227.008 308.794 222.475 369.898Z" fill="#DCE2E8"/>
<path fill-rule="evenodd" clip-rule="evenodd" d="M255.84 226.272C256.722 226.146 257.603 226.272 258.484 226.398L267.172 226.902C292.101 311.566 299.026 368.008 287.82 396.355H212.025C207.493 406.812 203.212 415.631 199.183 422.812H178.534C176.52 359.945 228.519 231.186 255.84 226.272Z" fill="#8E4809"/>
<path fill-rule="evenodd" clip-rule="evenodd" d="M228.519 352.889C230.911 372.795 234.814 387.284 240.102 396.355H212.025C217.187 384.134 222.727 369.645 228.519 352.889Z" fill="black" fill-opacity="0.1"/>
<path fill-rule="evenodd" clip-rule="evenodd" d="M825.941 390.307L779.734 549.429L758.078 668.738H736.296L758.078 390.307H825.941Z" fill="#987659"/>
<path fill-rule="evenodd" clip-rule="evenodd" d="M846.59 390.307C843.316 472.955 844.701 517.932 845.331 525.491C845.96 533.051 850.115 583.319 877.94 671.258H855.277C818.387 586.847 805.545 536.578 801.264 525.491C796.983 514.404 784.518 469.301 766.262 390.307H846.59Z" fill="#B18A67"/>
<path fill-rule="evenodd" clip-rule="evenodd" d="M826.948 390.307C814.987 444.986 794.213 532.421 764.751 652.36H732.771C730.379 529.271 740.451 448.135 757.7 390.307H826.948Z" fill="#68A0AA"/>
<path fill-rule="evenodd" clip-rule="evenodd" d="M846.842 390.307C843.694 472.955 851.878 554.342 877.185 653.62H843.19C806.174 570.469 779.734 489.459 761.604 390.307H846.842Z" fill="#88C4CC"/>
<path fill-rule="evenodd" clip-rule="evenodd" d="M881.34 687.636L880.081 667.478C872.778 669.62 863.587 668.738 852.633 664.959C840.798 673.4 825.941 679.069 807.937 682.093C806.552 682.345 805.67 683.605 805.922 684.991C805.922 685.117 805.922 685.117 805.922 685.243L807.685 691.29H852.633H878.822L881.34 687.636Z" fill="#191946"/>
<path fill-rule="evenodd" clip-rule="evenodd" d="M762.988 687.636L761.729 667.478C754.427 669.62 745.236 668.738 734.282 664.959C722.447 673.4 707.59 679.069 689.585 682.093C688.2 682.345 687.319 683.605 687.571 684.991C687.571 685.117 687.571 685.117 687.571 685.243L689.334 691.29H734.282H760.47L762.988 687.636Z" fill="#191946"/>
<path fill-rule="evenodd" clip-rule="evenodd" d="M806.3 189.862C812.092 183.059 815.995 174.744 815.365 165.295C813.477 138.333 775.957 144.255 768.654 157.861C761.352 171.468 762.233 205.988 771.676 208.382C775.453 209.39 783.385 206.996 791.569 202.083L786.407 238.367H816.624L806.3 189.862Z" fill="#B18A67"/>
<path fill-rule="evenodd" clip-rule="evenodd" d="M755.308 139.09C755.938 136.948 757.575 135.058 759.841 134.428C760.344 134.302 760.974 134.176 761.478 134.302C761.729 134.302 761.729 134.428 761.855 134.176C761.981 134.05 761.981 133.798 761.981 133.672C762.107 133.294 762.233 132.916 762.359 132.538C762.863 131.278 763.618 130.144 764.625 129.263C766.388 127.499 768.906 126.239 771.424 126.113C772.809 125.987 774.194 126.239 775.453 126.617C776.083 126.869 776.838 127.121 777.468 127.499C777.719 127.625 778.223 128.129 778.475 128.003C778.727 128.003 779.104 127.499 779.23 127.247C781.371 125.609 784.015 124.979 786.659 124.979C789.68 124.979 792.576 125.105 795.094 126.995C795.598 127.373 796.102 127.751 796.605 128.255C796.857 128.507 797.109 128.759 797.361 129.011C797.487 129.137 797.612 129.263 797.738 129.515C797.99 129.767 797.99 129.892 798.242 129.641C799.501 128.885 800.886 128.507 802.271 128.759C803.152 128.885 803.908 129.137 804.663 129.389C804.915 129.515 805.545 129.892 805.796 130.018C806.048 130.018 806.678 129.641 806.93 129.515C808.44 128.885 810.203 128.759 811.84 129.011C813.477 129.263 815.113 129.892 816.624 130.9C817.254 131.404 817.883 131.782 818.387 132.538C818.639 132.79 818.765 133.168 819.016 133.42C819.142 133.546 819.394 133.798 819.52 133.924C819.52 133.798 821.409 133.042 821.535 133.042C822.542 132.79 823.423 132.79 824.43 133.168C826.193 133.798 827.704 135.058 828.963 136.318C829.593 136.948 830.096 137.704 830.6 138.586C830.852 138.964 830.977 139.342 831.229 139.719C831.355 139.971 831.355 140.097 831.481 140.349C831.607 140.601 831.733 140.601 831.985 140.727C833.37 141.231 834.755 142.113 835.762 143.247C836.769 144.381 837.399 145.767 837.65 147.279C837.65 147.405 837.65 147.783 837.776 147.783C837.902 147.909 838.154 147.783 838.28 147.783C838.658 147.783 839.035 147.909 839.413 148.035C840.043 148.161 840.798 148.413 841.428 148.791C843.82 150.05 845.583 152.318 846.464 154.838C847.345 157.484 847.345 160.507 846.212 163.153C846.086 163.531 845.834 164.035 845.582 164.413C845.457 164.665 845.331 164.665 845.457 164.917C845.583 165.169 845.708 165.421 845.834 165.799C846.212 166.681 846.59 167.689 846.716 168.57C846.967 170.208 847.219 171.846 846.842 173.358C846.716 174.114 846.464 174.87 846.086 175.5C845.96 175.878 845.708 176.13 845.457 176.508C845.331 176.634 845.205 176.76 845.079 176.886C844.953 177.012 844.953 177.012 844.827 177.138C844.701 177.39 844.575 177.138 844.701 177.516C844.827 178.019 845.079 178.397 845.331 178.775C845.457 179.279 845.708 179.657 845.834 180.161C846.086 181.043 846.338 182.051 846.59 182.933C846.842 184.823 846.842 186.713 845.96 188.476C845.583 189.232 845.079 189.862 844.449 190.366C844.072 190.618 843.82 190.87 843.442 190.996C843.316 191.122 843.064 191.122 842.938 191.248C842.813 191.5 842.938 191.878 843.064 192.004C843.316 193.894 843.442 195.91 842.938 197.673C842.435 199.311 841.302 200.823 839.791 201.831C836.895 203.721 833.118 203.595 830.096 202.083C829.341 201.705 828.585 201.201 827.956 200.571C826.319 202.839 822.92 202.713 820.527 202.083C817.506 201.327 815.113 199.185 813.728 196.414C811.84 198.681 807.811 197.925 806.552 195.406C806.174 194.776 806.048 194.146 805.922 193.39C805.922 193.012 805.922 192.634 805.922 192.256C805.922 191.752 805.545 191.374 805.419 190.87C805.041 189.988 804.915 189.106 804.915 188.224C804.915 187.72 804.915 187.217 805.041 186.839C805.041 186.461 804.915 185.957 804.915 185.579C805.67 185.705 806.678 185.453 807.307 185.327C808.063 185.075 808.692 184.571 809.196 183.941C810.329 182.681 811.084 181.043 811.588 179.531C812.721 176.004 812.218 171.846 808.692 169.83C807.055 168.948 802.145 168.948 800.131 169.326C798.116 169.83 795.724 174.366 795.598 174.744C795.472 174.996 795.598 175.374 795.346 175.5C794.843 175.878 793.961 175.248 793.584 174.87C792.954 174.24 792.45 173.484 791.947 172.728C791.065 171.09 790.31 169.2 789.806 167.437C789.429 166.051 789.177 164.539 788.673 163.153C788.17 161.767 787.288 160.507 786.029 159.751C784.644 158.869 783.007 158.492 781.497 157.862C779.986 157.358 778.475 156.728 777.342 155.594C777.09 155.342 776.838 155.09 776.586 154.838C776.46 154.586 776.209 154.208 775.957 154.082C775.579 153.83 774.949 154.46 774.698 154.712C773.061 155.72 771.676 157.232 770.543 158.869C769.41 160.507 768.528 162.019 767.773 163.783C767.269 165.169 766.892 166.807 765.884 167.941C765.507 168.444 762.233 168.696 761.226 168.319C760.219 167.941 758.959 166.807 758.708 166.051C758.33 165.295 758.204 164.539 758.456 163.783C758.582 163.279 758.708 162.901 758.834 162.397C758.96 162.019 758.959 161.641 759.211 161.263C759.589 160.633 760.093 160.129 760.848 160.003C760.093 159.373 759.463 158.492 759.085 157.61C758.582 156.602 758.33 155.468 758.204 154.46C758.078 153.578 758.204 152.696 758.708 152.066C759.211 151.31 760.093 150.806 760.848 150.302C759.715 149.42 758.708 148.287 757.952 147.153C755.434 144.759 754.427 141.861 755.308 139.09Z" fill="#191946"/>
<path fill-rule="evenodd" clip-rule="evenodd" d="M667.93 297.959L713.508 317.991L698.902 336.637L664.782 310.558L667.93 297.959ZM929.31 399.378C931.828 402.654 946.937 410.969 957.261 415.505C961.416 417.269 960.534 420.796 959.275 421.93C949.455 431.001 940.389 424.324 929.813 421.678C918.23 418.78 921.881 432.639 912.69 430.497C914.201 424.198 918.104 412.229 913.823 405.678C911.935 402.78 898.085 377.079 872.023 328.7L897.833 323.534C915.46 369.771 925.91 394.969 929.31 399.378Z" fill="#B18A67"/>
<path fill-rule="evenodd" clip-rule="evenodd" d="M802.145 227.028L791.317 225.138C767.647 248.194 757.952 303.502 742.088 310.81C727.105 317.739 705.953 311.061 680.772 301.99L673.092 319.251C696.007 344.07 744.732 364.984 764.499 353.015C795.976 333.865 803.278 265.58 802.145 227.028Z" fill="#DA2927"/>
<path fill-rule="evenodd" clip-rule="evenodd" d="M849.486 390.307C805.796 390.307 773.69 390.307 753.168 390.307C748.761 390.307 749.643 357.551 750.272 354.275C757.575 317.235 786.281 277.297 786.281 224.635L814.106 220.225C837.021 257.265 844.953 329.204 849.486 390.307Z" fill="#DCE2E8"/>
<path fill-rule="evenodd" clip-rule="evenodd" d="M859.18 326.432C878.822 361.834 895.315 387.41 908.661 403.032L928.806 399.126C915.838 318.369 878.192 258.777 815.869 220.351H815.491H804.789C779.86 305.392 772.935 362.086 784.141 390.433H870.89C869.631 369.646 865.224 347.724 859.18 326.432Z" fill="#EE4639"/>
<path d="M668.559 313.329C668.433 313.329 667.678 312.699 667.678 312.699C666.041 312.447 664.152 313.581 663.019 314.715C662.138 315.597 661.005 316.227 659.998 316.983C659.746 317.235 659.368 317.361 658.99 317.361C654.961 317.361 650.932 317.361 647.029 317.361C645.267 317.361 644.133 316.479 643.756 314.715C643.126 311.818 642.371 309.046 641.741 306.148C641.489 305.14 641.615 304.006 641.489 302.872C641.238 300.605 641.615 298.211 641.867 295.943C642.119 294.179 643.882 292.794 645.644 293.045C647.785 293.297 649.799 293.423 651.94 293.549C652.191 293.549 652.569 293.549 652.821 293.423C653.451 293.297 653.576 293.045 653.325 292.416C652.695 290.652 651.94 288.888 651.31 287.124C650.806 285.738 650.681 284.226 651.436 282.715C652.066 281.329 653.325 280.573 654.835 280.321C655.339 280.195 655.465 281.581 655.717 282.085C656.724 284.478 657.228 286.242 658.613 288.384C658.739 288.636 662.516 290.022 663.523 291.408C665.412 293.045 666.671 295.817 667.048 296.069C683.794 311.818 669.189 313.329 668.559 313.329Z" fill="#B18A67"/>
</svg>
